<?xml version="1.0" standalone="no"?><!DOCTYPE svg PUBLIC "-//W3C//DTD SVG 1.1//EN" "http://www.w3.org/Graphics/SVG/1.1/DTD/svg11.dtd"><svg t="1745327477951" class="icon" viewBox="0 0 1024 1024" version="1.1" xmlns="http://www.w3.org/2000/svg" p-id="13615" data-spm-anchor-id="a313x.search_index.0.i7.44ce3a81QWaDSD" xmlns:xlink="http://www.w3.org/1999/xlink" width="256" height="256"><path d="M1022.588147 511.294073c0-282.916054-228.378019-511.294073-511.294074-511.294073S0 228.378019 0 511.294073s228.378019 511.294073 511.294073 511.294074c20.451763 0 44.312153-3.408627 64.763916-3.408628 34.086272 3.408627 74.989797 6.817254 115.893324 3.408628 132.936459-3.408627 228.378019-34.086272 286.324681-57.946662-37.494899-6.817254-92.032933-20.451763-153.388222-47.72078C944.189722 821.479144 1022.588147 674.908177 1022.588147 511.294073zM255.647037 426.078394c0-37.494899 30.677644-68.172543 68.172543-68.172543s68.172543 30.677644 68.172543 68.172543-30.677644 68.172543-68.172543 68.172544-68.172543-30.677644-68.172543-68.172544zM756.715229 681.725431c-44.312153 85.215679-129.527832 136.345086-228.37802 136.345086-95.44156 0-180.657239-51.129407-224.969392-136.345086-3.408627-6.817254 0-17.043136 6.817254-23.86039 6.817254-3.408627 17.043136 0 23.86039 6.817254 37.494899 71.58117 112.484696 119.30195 197.700375 119.301951 81.807052 0 156.796849-44.312153 197.700375-119.301951 3.408627-6.817254 13.634509-10.225881 23.86039-6.817254 3.408627 3.408627 6.817254 13.634509 3.408628 23.86039z m10.225881-177.248612l-190.883121-47.72078c-3.408627 0-3.408627-3.408627-6.817254-3.408627 0 0 0-3.408627-3.408627-3.408627v-3.408628-6.817254c0-6.817254 3.408627-10.225881 6.817254-13.634509L749.897974 330.636834c6.817254-3.408627 13.634509 0 17.043136 10.225882s0 17.043136-6.817254 23.86039l-136.345087 71.58117 146.570968 37.494899c6.817254 3.408627 13.634509 10.225881 10.225882 20.451763 0 6.817254-6.817254 13.634509-13.634509 10.225881z" fill="#ffffff" p-id="13616" data-spm-anchor-id="a313x.search_index.0.i6.44ce3a81QWaDSD" class=""></path></svg>