<?xml version="1.0" standalone="no"?><!DOCTYPE svg PUBLIC "-//W3C//DTD SVG 1.1//EN" "http://www.w3.org/Graphics/SVG/1.1/DTD/svg11.dtd"><svg t="1745328206139" class="icon" viewBox="0 0 1024 1024" version="1.1" xmlns="http://www.w3.org/2000/svg" p-id="30001" xmlns:xlink="http://www.w3.org/1999/xlink" width="256" height="256"><path d="M513.44 1.216C232.704 1.216 5.152 228.8 5.152 509.504s227.584 508.288 508.288 508.288 508.288-227.552 508.288-508.288S794.144 1.216 513.44 1.216z m-176.448 763.712c-0.608 11.808-7.104 18.304-19.52 19.52-9.472 0-17.152-0.896-23.04-2.656-6.496-2.368-9.472-7.104-8.864-14.176 2.368-7.104 6.784-10.336 13.312-9.76 10.048 2.368 14.752 0.896 14.176-4.448v-140.096h-17.728c-6.496-0.576-9.76-4.736-9.76-12.416 0.576-7.104 4.128-10.944 10.624-11.52h52.32c3.552 0 5.888 1.472 7.104 4.448a11.424 11.424 0 0 1 9.76-7.104h118.816c6.496 0.608 9.76 4.736 9.76 12.416-0.608 7.68-4.128 11.84-10.624 12.416h-53.184l-3.552 16.832h34.592c14.752-0.576 21.568 5.632 20.384 18.624v91.328c-0.608 6.496-4.736 10.048-12.416 10.624-7.68-0.576-11.84-4.128-12.416-10.624v-82.464c0-1.76-0.896-2.656-2.656-2.656h-62.944a5.76 5.76 0 0 0-2.656 2.656v80.672c-0.608 7.104-4.736 10.944-12.416 11.52-7.68-0.576-11.84-4.448-12.416-11.52v-89.536c0-12.416 5.312-18.624 15.968-18.624h21.28l4.448-16.832h-37.248a20.096 20.096 0 0 1-11.52-4.448c-1.76 4.128-5.024 6.208-9.76 6.208h-9.76v151.616z m155.168 17.728c-4.736 7.104-10.944 8.288-18.624 3.552a178.144 178.144 0 0 1-20.384-11.52 192.896 192.896 0 0 0-20.384-9.76c-8.864-4.128-12.416-9.152-10.624-15.072-1.76 2.976-5.312 6.496-10.624 10.624l-1.76 1.76a158.912 158.912 0 0 1-46.976 26.592c-8.288 2.368-14.176 0.288-17.728-6.208-2.368-7.104 0-12.416 7.104-15.968 27.168-11.232 43.744-22.464 49.664-33.696 6.496-10.624 9.76-30.432 9.76-59.392 0.576-8.288 4.448-12.704 11.52-13.312 7.68 0.608 11.808 5.024 12.416 13.312 1.184 30.144-2.368 53.184-10.624 69.152 5.888-7.104 13.6-7.392 23.04-0.896 7.104 4.128 16.544 9.472 28.384 15.968 5.312 3.552 9.152 5.92 11.52 7.104 7.104 4.128 8.576 10.048 4.448 17.728z m110.816-2.656h-60.288c-11.232-0.608-17.152-5.632-17.728-15.072v-49.664c-0.608-12.992 5.312-19.2 17.728-18.624h62.048c11.232-0.576 16.832 5.632 16.832 18.624v50.528c0.576 9.44-5.632 14.176-18.624 14.176z m84.224-7.072c-9.472 0-16.832-1.184-22.176-3.552-5.92-2.976-7.68-7.68-5.312-14.176 2.368-7.104 7.392-9.76 15.072-7.968 15.968 3.552 22.752-2.656 20.384-18.624-0.608-11.808-8.576-26.592-23.936-44.32-5.312-5.312-6.208-13.312-2.656-23.936 6.496-20.096 10.944-35.456 13.312-46.112h-23.936c-1.76 0-2.976 1.184-3.552 3.552v159.584c-0.608 7.68-4.448 11.808-11.52 12.416-7.68-0.608-11.84-4.736-12.416-12.416v-93.984a8.384 8.384 0 0 1-7.104 3.552h-100.192c-6.496-0.576-10.048-4.736-10.624-12.416 0.576-7.68 4.128-11.808 10.624-12.416h21.28c-1.184-1.184-5.312-8.256-12.416-21.28-2.976-7.68-0.896-12.992 6.208-15.968h-10.624c-6.496-0.576-10.048-4.736-10.624-12.416 0.576-7.68 4.128-11.808 10.624-12.416h31.904a9.472 9.472 0 0 1-1.76-5.312c-1.76-5.888 0.896-10.624 7.968-14.176 8.256-2.944 13.6-1.472 15.968 4.448 1.76 5.312 3.84 10.336 6.208 15.072h29.248c6.496 0.608 10.048 4.736 10.624 12.416-0.608 7.68-4.128 11.84-10.624 12.416h-68.256c4.128 2.368 9.152 10.624 15.072 24.832 1.76 5.92 1.184 10.048-1.76 12.416h19.52c0.576-1.76 1.472-4.128 2.656-7.104 3.552-8.864 5.888-15.968 7.104-21.28 2.368-5.888 7.392-8.256 15.072-7.104 7.104 2.976 9.76 7.68 7.968 14.176a113.952 113.952 0 0 0-3.552 10.624 464 464 0 0 1-4.448 11.52h15.968c3.552 0 5.888 0.896 7.104 2.656v-60.288c0-11.808 4.448-17.44 13.312-16.832h53.184c13.6 0 18.912 7.392 15.968 22.176 0 0.608-1.472 5.632-4.448 15.072-4.736 14.784-7.968 25.696-9.76 32.8a42.784 42.784 0 0 0-2.656 11.52 29.504 29.504 0 0 0 5.312 7.968c12.416 18.912 19.2 36.64 20.384 53.184 0.576 27.2-10.624 41.088-33.696 41.664z m-93.984-51.424h-40.768c-1.76 0-2.976 1.184-3.552 3.552v27.488c0.576 2.368 1.76 3.552 3.552 3.552h40.768c2.368-0.576 3.552-1.76 3.552-3.552v-27.488c0-2.368-1.184-3.552-3.552-3.552zM508.224 171.456l147.936 165.664H360.32l147.936-165.664z" fill="#78cffa" p-id="30002" data-spm-anchor-id="a313x.search_index.0.i13.44ce3a81QWaDSD" class=""></path></svg>